# xmcd
#
# Track frame offsets:
#	215
#	21215
#	46285
#	66822
#	89702
#	124977
#	146955
#	161192
#	202447
#
# Disc length: 2924 seconds
#
# Revision: 1
# Processed by: cddbd v1.5.1PL0 Copyright (c) Steve Scherf et al.
# Submitted via: CDmax 2.0
#
DISCID=930b6a09
DTITLE=Augie Jr and the Big Mess Blues Band - Drinker's Choice
DYEAR=1991
DGENRE=Blues
TTITLE0=She's Mine
TTITLE1=Down on the Floor
TTITLE2=Black Train
TTITLE3=(Please Send Me) Someone to Love
TTITLE4=Drinker's Choice
TTITLE5=Hoboin'
TTITLE6=Hot Tub Gumbo
TTITLE7=Jefferson Girl
TTITLE8=Bring It (When You Come)
EXTD=the Big Mess Blues Band:\nMickey Bones: drums;\nLisa Driscoll: washboard
EXTD=;\nScott Kirby: piano;\nTom Ray: upright bass;\nAugust 'Augie' Samuel Ro
EXTD=dola, Jr: guitar, vox;\nRandy Torgerson: harp.
EXTT0=
EXTT1=
EXTT2=
EXTT3=
EXTT4=
EXTT5=
EXTT6=
EXTT7=
EXTT8=
PLAYORDER=
